<?xml version="1.0" encoding="UTF-8" standalone="no"?>
<!DOCTYPE svg PUBLIC "-//W3C//DTD SVG 1.1//EN" "http://www.w3.org/Graphics/SVG/1.1/DTD/svg11.dtd">
<svg viewBox="0 0 947 464" version="1.1" xmlns="http://www.w3.org/2000/svg" xmlns:xlink="http://www.w3.org/1999/xlink" xml:space="preserve"  style="fill-rule:evenodd;clip-rule:evenodd;stroke-linejoin:round;stroke-miterlimit:2;">
    <g transform="matrix(1,0,0,1,-286.575,-528.248)">
        <g transform="matrix(8.33333,0,0,8.33333,0,0)">
            <g transform="matrix(111.141,2.47813,2.11928,-95.0473,36.6461,100.456)">
                <path d="M0.193,0.006C0.185,0.007 0.076,0.022 0.026,0.033C-0.007,0.041 -0.002,0.036 0.005,0.029C0.021,0.015 0.027,0.003 0.027,-0.015C0.024,-0.026 0.018,-0.034 0.006,-0.047C0.002,-0.051 0.007,-0.054 0.007,-0.054C0.034,-0.056 0.07,-0.057 0.078,-0.057C0.393,-0.069 0.703,-0.045 1,0.078C0.735,0.007 0.462,-0.025 0.193,0.006Z" style="fill:url(#_Linear1);fill-rule:nonzero;"/>
            </g>
            <g transform="matrix(1,0,0,1,86.4789,85.0151)">
                <path d="M0,-17.502C0,-17.502 3.802,-15.294 1.643,-17.649C-0.515,-20.004 -4.874,-21.337 -9.191,-21.222C-13.508,-21.106 -20.467,-17.426 -22.55,-13.524C-24.457,-9.954 -25.295,-3.533 -24.458,-1.881C-21.565,3.835 -27.764,-4.154 -19.822,-15.358C-16.812,-19.606 -7.806,-21.229 0,-17.502" style="fill:rgb(246,134,60);fill-rule:nonzero;"/>
            </g>
            <g transform="matrix(1,0,0,1,35.2727,94.4636)">
                <path d="M0,-29.129C0,-29.129 -1.477,-8.26 1.449,-4.659C4.672,-0.693 9.01,3.004 18.744,0.085C19.622,-0.178 12.281,-0.042 12.281,-0.042C3.324,-0.596 1.04,-7.587 0.923,-9.432C0.415,-17.494 0.947,-29.561 1.143,-30.156C1.34,-30.752 0.359,-32.133 0,-29.129" style="fill:rgb(250,164,26);fill-rule:nonzero;"/>
            </g>
            <g transform="matrix(1,0,0,1,89.4764,82.508)">
                <path d="M0,-16.681C0,-16.681 18.072,-20.376 20.376,-12.31C24.439,1.91 6.508,0.41 6.508,0.41C6.508,0.41 21.238,3.695 22.338,-8.846C22.778,-13.86 18.568,-18.581 12.681,-18.466C6.795,-18.351 0,-18.343 0,-18.343L0,-16.681Z" style="fill:rgb(229,86,52);fill-rule:nonzero;"/>
            </g>
            <g transform="matrix(0.620751,-0.784008,-0.784008,-0.620751,129.99,85.1833)">
                <path d="M2.274,5.124L23.002,5.124L-2.502,-14.341L18.247,3.577L2.274,5.124Z" style="fill:rgb(52,104,178);fill-rule:nonzero;"/>
            </g>
            <g transform="matrix(1,0,0,1,61.2411,76.8603)">
                <path d="M0,6.05C0,8.066 -0.222,9.764 -0.666,11.141C-1.11,12.519 -1.823,13.752 -2.805,14.843C-4.126,16.297 -5.683,17.41 -7.477,18.184C-9.271,18.957 -11.184,19.345 -13.217,19.345C-15.251,19.345 -17.156,18.961 -18.932,18.193C-20.709,17.425 -22.262,16.308 -23.595,14.843C-24.577,13.764 -25.296,12.53 -25.751,11.141C-26.207,9.752 -26.435,8.055 -26.435,6.05L-26.435,-12.928C-26.423,-13.044 -26.385,-13.135 -26.321,-13.199C-26.257,-13.263 -26.172,-13.295 -26.066,-13.295C-25.95,-13.284 -25.868,-13.252 -25.822,-13.199C-25.774,-13.146 -25.751,-13.056 -25.751,-12.928L-25.751,5.945C-25.751,7.962 -25.532,9.642 -25.094,10.982C-24.655,12.323 -23.952,13.507 -22.981,14.533C-21.708,15.886 -20.241,16.912 -18.581,17.612C-16.922,18.311 -15.134,18.661 -13.217,18.661C-11.313,18.661 -9.518,18.308 -7.836,17.603C-6.153,16.897 -4.68,15.874 -3.419,14.533C-2.449,13.519 -1.744,12.347 -1.306,11.017C-0.868,9.688 -0.649,7.997 -0.649,5.945L-0.649,-12.928C-0.649,-13.044 -0.614,-13.135 -0.544,-13.199C-0.473,-13.263 -0.392,-13.295 -0.298,-13.295C-0.193,-13.295 -0.117,-13.269 -0.07,-13.217C-0.024,-13.164 0,-13.068 0,-12.928L0,6.05Z" style="fill:rgb(64,63,65);fill-rule:nonzero;"/>
            </g>
            <g transform="matrix(1,0,0,1,88.4387,92.0508)">
                <path d="M0,-24.577L0.123,-24.472C0.204,-24.378 0.266,-24.299 0.307,-24.235C0.347,-24.171 0.368,-24.115 0.368,-24.068C0.368,-23.998 0.341,-23.934 0.289,-23.876C0.236,-23.817 0.181,-23.788 0.123,-23.788C0.076,-23.788 0.038,-23.794 0.008,-23.806C-0.021,-23.817 -0.07,-23.846 -0.141,-23.893L-0.246,-23.963C-2.419,-25.599 -4.251,-26.677 -5.741,-27.197C-7.231,-27.718 -8.859,-27.978 -10.623,-27.978C-12.481,-27.978 -14.258,-27.678 -15.952,-27.078C-17.647,-26.478 -19.184,-25.613 -20.563,-24.483C-22.362,-22.992 -23.777,-21.16 -24.805,-18.989C-25.833,-16.817 -26.347,-14.577 -26.347,-12.271C-26.347,-10.268 -25.935,-8.29 -25.111,-6.34C-24.287,-4.389 -23.145,-2.68 -21.684,-1.212C-20.212,0.244 -18.509,1.377 -16.574,2.186C-14.641,2.996 -12.657,3.4 -10.623,3.4C-8.671,3.4 -6.828,3.085 -5.093,2.454C-3.357,1.823 -1.835,0.917 -0.526,-0.263L-0.351,-0.385C-0.339,-0.398 -0.316,-0.417 -0.28,-0.442C-0.152,-0.556 -0.047,-0.619 0.035,-0.631C0.128,-0.619 0.195,-0.59 0.236,-0.544C0.277,-0.497 0.298,-0.427 0.298,-0.333C0.298,-0.275 0.289,-0.222 0.272,-0.175C0.254,-0.129 0.228,-0.088 0.193,-0.053L0.087,0.052C-0.744,1.042 -2.212,1.962 -4.318,2.811C-6.424,3.659 -8.531,4.084 -10.637,4.084C-12.755,4.084 -14.824,3.657 -16.841,2.805C-18.861,1.951 -20.636,0.759 -22.169,-0.772C-23.702,-2.303 -24.896,-4.076 -25.75,-6.092C-26.604,-8.108 -27.031,-10.173 -27.031,-12.288C-27.031,-14.416 -26.604,-16.498 -25.75,-18.538C-24.896,-20.577 -23.702,-22.374 -22.169,-23.928C-20.659,-25.459 -18.913,-26.631 -16.929,-27.443C-14.946,-28.255 -12.848,-28.661 -10.637,-28.661C-8.613,-28.661 -6.667,-28.301 -4.801,-27.582C-2.934,-26.863 -1.334,-25.861 0,-24.577" style="fill:rgb(64,63,65);fill-rule:nonzero;"/>
            </g>
            <g transform="matrix(1,0,0,1,97.137,76.2742)">
                <path d="M0,7.327L17.851,19.317C17.897,19.352 17.938,19.393 17.973,19.44C18.008,19.486 18.026,19.527 18.026,19.563C18.026,19.644 17.994,19.721 17.929,19.79C17.865,19.861 17.786,19.896 17.693,19.896C17.669,19.896 17.64,19.887 17.605,19.869C17.57,19.852 17.541,19.837 17.518,19.826L-1.153,7.327C-1.165,7.316 -1.194,7.298 -1.24,7.274C-1.415,7.193 -1.502,7.076 -1.502,6.924C-1.502,6.842 -1.479,6.775 -1.432,6.722C-1.386,6.67 -1.316,6.643 -1.222,6.643L-0.908,6.643C-0.268,6.69 0.501,6.713 1.398,6.713C3.506,6.713 5.145,6.617 6.316,6.424C7.487,6.231 8.514,5.907 9.399,5.452C10.925,4.703 12.072,3.652 12.841,2.296C13.61,0.941 13.994,-0.695 13.994,-2.612C13.994,-4.272 13.664,-5.753 13.007,-7.056C12.349,-8.359 11.385,-9.443 10.115,-10.308C9.277,-10.869 8.313,-11.272 7.224,-11.517C6.135,-11.763 4.641,-11.885 2.743,-11.885L-7.392,-11.885L-7.392,19.493C-7.392,19.598 -7.424,19.682 -7.488,19.747C-7.553,19.811 -7.643,19.849 -7.76,19.861C-7.865,19.861 -7.945,19.828 -7.997,19.764C-8.05,19.7 -8.076,19.609 -8.076,19.493L-8.076,-12.166C-8.076,-12.295 -8.012,-12.394 -7.883,-12.464C-7.755,-12.534 -7.579,-12.569 -7.357,-12.569L3.215,-12.569C6.866,-12.569 9.689,-11.702 11.684,-9.966C13.68,-8.23 14.678,-5.779 14.678,-2.612C14.678,0.66 13.625,3.146 11.522,4.846C9.417,6.547 6.331,7.397 2.263,7.397C1.654,7.397 1.192,7.391 0.877,7.38C0.561,7.368 0.27,7.351 0,7.327" style="fill:rgb(64,63,65);fill-rule:nonzero;"/>
            </g>
            <g transform="matrix(1,0,0,1,139.619,94.8729)">
                <path d="M0,-30.081L-11.779,-14.76C-11.792,-14.748 -11.82,-14.707 -11.867,-14.637C-11.984,-14.474 -12.113,-14.392 -12.253,-14.392C-12.335,-14.392 -12.41,-14.415 -12.481,-14.462C-12.551,-14.509 -12.627,-14.602 -12.708,-14.743L-24.454,-30.081L-24.454,0.894C-24.454,0.999 -24.486,1.084 -24.55,1.148C-24.615,1.212 -24.705,1.25 -24.821,1.262C-24.916,1.262 -24.985,1.233 -25.032,1.174C-25.079,1.116 -25.102,1.022 -25.102,0.894L-25.102,-30.905C-25.102,-31.08 -25.079,-31.197 -25.032,-31.256C-24.985,-31.314 -24.916,-31.343 -24.821,-31.343C-24.693,-31.343 -24.565,-31.261 -24.436,-31.098C-24.401,-31.051 -24.372,-31.01 -24.348,-30.975L-12.253,-15.181L-0.158,-30.975C-0.134,-30.998 -0.105,-31.033 -0.069,-31.08C0.07,-31.256 0.211,-31.343 0.351,-31.343C0.444,-31.343 0.514,-31.305 0.561,-31.229C0.608,-31.153 0.632,-31.045 0.632,-30.905L0.632,0.894C0.632,1.011 0.602,1.098 0.544,1.157C0.485,1.215 0.398,1.25 0.281,1.262C0.175,1.262 0.103,1.233 0.062,1.174C0.021,1.116 0,1.022 0,0.894L0,-30.081Z" style="fill:rgb(64,63,65);fill-rule:nonzero;"/>
            </g>
            <g transform="matrix(1,0,0,1,0,-2385.49)">
                <rect x="34.389" y="2498.03" width="0.901" height="5.052" style="fill:rgb(64,63,65);"/>
            </g>
            <g transform="matrix(1,0,0,1,36.2133,117.497)">
                <path d="M0,-3.64L0.884,-3.64L0.884,-3.257C1.085,-3.436 1.267,-3.561 1.43,-3.631C1.592,-3.701 1.759,-3.736 1.929,-3.736C2.279,-3.736 2.575,-3.607 2.819,-3.348C3.024,-3.128 3.126,-2.803 3.126,-2.373L3.126,0.096L2.252,0.096L2.252,-1.54C2.252,-1.986 2.233,-2.282 2.195,-2.428C2.157,-2.575 2.092,-2.686 1.998,-2.763C1.904,-2.839 1.788,-2.878 1.65,-2.878C1.472,-2.878 1.318,-2.814 1.19,-2.687C1.062,-2.56 0.973,-2.385 0.923,-2.161C0.897,-2.044 0.884,-1.791 0.884,-1.403L0.884,0.096L0,0.096L0,-3.64Z" style="fill:rgb(64,63,65);fill-rule:nonzero;"/>
            </g>
            <g transform="matrix(1,0,0,1,43.6455,116.837)">
                <path d="M0,-2.225L-0.736,-1.796C-0.875,-1.949 -1.012,-2.056 -1.147,-2.115C-1.282,-2.175 -1.44,-2.204 -1.622,-2.204C-1.953,-2.204 -2.22,-2.1 -2.425,-1.891C-2.629,-1.682 -2.731,-1.413 -2.731,-1.087C-2.731,-0.769 -2.633,-0.509 -2.436,-0.308C-2.239,-0.107 -1.981,-0.006 -1.661,-0.006C-1.265,-0.006 -0.957,-0.15 -0.736,-0.436L-0.039,0.07C-0.417,0.591 -0.95,0.852 -1.639,0.852C-2.259,0.852 -2.745,0.657 -3.096,0.268C-3.447,-0.121 -3.622,-0.577 -3.622,-1.099C-3.622,-1.46 -3.537,-1.793 -3.366,-2.098C-3.196,-2.402 -2.958,-2.642 -2.652,-2.816C-2.346,-2.99 -2.004,-3.077 -1.626,-3.077C-1.277,-3.077 -0.962,-3.003 -0.684,-2.855C-0.405,-2.707 -0.177,-2.497 0,-2.225" style="fill:rgb(64,63,65);fill-rule:nonzero;"/>
            </g>
            <g transform="matrix(1,0,0,1,0,-2385.61)">
                <rect x="44.345" y="2498.03" width="0.884" height="5.179" style="fill:rgb(64,63,65);"/>
            </g>
            <g transform="matrix(1,0,0,1,46.0299,117.69)">
                <path d="M0,-3.833L0.894,-3.833L0.894,-2.033C0.894,-1.683 0.917,-1.44 0.962,-1.304C1.008,-1.167 1.081,-1.062 1.182,-0.986C1.282,-0.911 1.406,-0.873 1.554,-0.873C1.701,-0.873 1.826,-0.91 1.929,-0.984C2.032,-1.059 2.108,-1.168 2.158,-1.312C2.194,-1.42 2.213,-1.65 2.213,-2.003L2.213,-3.833L3.097,-3.833L3.097,-2.25C3.097,-1.597 3.049,-1.151 2.952,-0.911C2.833,-0.618 2.658,-0.393 2.427,-0.236C2.196,-0.079 1.902,0 1.546,0C1.159,0 0.846,-0.092 0.608,-0.275C0.369,-0.458 0.201,-0.714 0.104,-1.041C0.035,-1.268 0,-1.68 0,-2.277L0,-3.833Z" style="fill:rgb(64,63,65);fill-rule:nonzero;"/>
            </g>
            <g transform="matrix(1,0,0,1,52.1727,117.071)">
                <path d="M0,-2.693L-0.547,-2.112C-0.77,-2.346 -0.972,-2.463 -1.153,-2.463C-1.253,-2.463 -1.33,-2.441 -1.387,-2.396C-1.443,-2.351 -1.471,-2.296 -1.471,-2.229C-1.471,-2.179 -1.453,-2.133 -1.417,-2.09C-1.382,-2.048 -1.294,-1.99 -1.153,-1.917L-0.829,-1.745C-0.488,-1.567 -0.254,-1.384 -0.126,-1.199C0.001,-1.014 0.065,-0.796 0.065,-0.546C0.065,-0.214 -0.05,0.063 -0.28,0.285C-0.51,0.507 -0.818,0.618 -1.205,0.618C-1.719,0.618 -2.13,0.405 -2.436,-0.021L-1.892,-0.65C-1.788,-0.521 -1.667,-0.418 -1.527,-0.339C-1.388,-0.26 -1.265,-0.22 -1.157,-0.22C-1.04,-0.22 -0.946,-0.25 -0.875,-0.309C-0.803,-0.369 -0.768,-0.438 -0.768,-0.516C-0.768,-0.66 -0.896,-0.801 -1.153,-0.938L-1.451,-1.096C-2.022,-1.4 -2.307,-1.782 -2.307,-2.24C-2.307,-2.535 -2.199,-2.787 -1.984,-2.997C-1.77,-3.206 -1.495,-3.311 -1.16,-3.311C-0.931,-3.311 -0.715,-3.258 -0.513,-3.151C-0.311,-3.045 -0.14,-2.892 0,-2.693" style="fill:rgb(64,63,65);fill-rule:nonzero;"/>
            </g>
            <g transform="matrix(1,0,0,1,0,-2385.71)">
                <path d="M52.837,2499.57L53.721,2499.57L53.721,2503.3L52.837,2503.3L52.837,2499.57ZM53.279,2498.03C53.434,2498.03 53.567,2498.09 53.678,2498.21C53.789,2498.33 53.844,2498.47 53.844,2498.64C53.844,2498.81 53.79,2498.95 53.68,2499.07C53.57,2499.18 53.438,2499.24 53.286,2499.24C53.128,2499.24 52.994,2499.18 52.883,2499.06C52.773,2498.94 52.717,2498.8 52.717,2498.62C52.717,2498.46 52.772,2498.32 52.882,2498.2C52.992,2498.09 53.124,2498.03 53.279,2498.03" style="fill:rgb(64,63,65);fill-rule:nonzero;"/>
            </g>
            <g transform="matrix(1,0,0,1,56.1951,116.806)">
                <path d="M0,-2.163C-0.275,-2.163 -0.504,-2.061 -0.686,-1.859C-0.869,-1.656 -0.961,-1.397 -0.961,-1.081C-0.961,-0.756 -0.87,-0.493 -0.69,-0.291C-0.509,-0.09 -0.28,0.011 -0.003,0.011C0.274,0.011 0.504,-0.091 0.688,-0.295C0.872,-0.498 0.964,-0.76 0.964,-1.081C0.964,-1.402 0.873,-1.662 0.693,-1.862C0.512,-2.063 0.281,-2.163 0,-2.163M-0.015,-3.046C0.318,-3.046 0.631,-2.957 0.923,-2.781C1.216,-2.605 1.444,-2.365 1.609,-2.063C1.773,-1.761 1.855,-1.435 1.855,-1.085C1.855,-0.732 1.772,-0.402 1.607,-0.095C1.442,0.211 1.216,0.451 0.932,0.624C0.646,0.797 0.332,0.883 -0.011,0.883C-0.517,0.883 -0.948,0.693 -1.306,0.311C-1.663,-0.07 -1.842,-0.533 -1.842,-1.078C-1.842,-1.662 -1.64,-2.148 -1.236,-2.537C-0.882,-2.876 -0.475,-3.046 -0.015,-3.046" style="fill:rgb(64,63,65);fill-rule:nonzero;"/>
            </g>
            <g transform="matrix(1,0,0,1,58.7723,117.497)">
                <path d="M0,-3.64L0.884,-3.64L0.884,-3.257C1.085,-3.436 1.267,-3.561 1.43,-3.631C1.592,-3.701 1.759,-3.736 1.929,-3.736C2.279,-3.736 2.575,-3.607 2.819,-3.348C3.024,-3.128 3.126,-2.803 3.126,-2.373L3.126,0.096L2.252,0.096L2.252,-1.54C2.252,-1.986 2.233,-2.282 2.195,-2.428C2.157,-2.575 2.092,-2.686 1.998,-2.763C1.904,-2.839 1.788,-2.878 1.65,-2.878C1.472,-2.878 1.318,-2.814 1.19,-2.687C1.062,-2.56 0.973,-2.385 0.923,-2.161C0.897,-2.044 0.884,-1.791 0.884,-1.403L0.884,0.096L0,0.096L0,-3.64Z" style="fill:rgb(64,63,65);fill-rule:nonzero;"/>
            </g>
            <g transform="matrix(1,0,0,1,65.3524,116.906)">
                <path d="M0,-3.678L-0.672,-3.049C-0.908,-3.397 -1.148,-3.571 -1.393,-3.571C-1.512,-3.571 -1.609,-3.538 -1.684,-3.47C-1.76,-3.403 -1.798,-3.326 -1.798,-3.242C-1.798,-3.157 -1.771,-3.077 -1.717,-3.001C-1.643,-2.901 -1.422,-2.684 -1.052,-2.352C-0.705,-2.046 -0.496,-1.852 -0.422,-1.772C-0.238,-1.575 -0.108,-1.387 -0.031,-1.207C0.046,-1.027 0.084,-0.831 0.084,-0.618C0.084,-0.204 -0.051,0.139 -0.321,0.409C-0.591,0.679 -0.944,0.814 -1.379,0.814C-1.718,0.814 -2.014,0.726 -2.266,0.55C-2.518,0.374 -2.733,0.096 -2.913,-0.282L-2.15,-0.769C-1.921,-0.323 -1.657,-0.099 -1.358,-0.099C-1.203,-0.099 -1.072,-0.147 -0.966,-0.244C-0.86,-0.34 -0.807,-0.451 -0.807,-0.577C-0.807,-0.691 -0.847,-0.806 -0.927,-0.92C-1.007,-1.035 -1.183,-1.21 -1.456,-1.446C-1.975,-1.894 -2.311,-2.241 -2.462,-2.485C-2.613,-2.729 -2.689,-2.972 -2.689,-3.214C-2.689,-3.564 -2.563,-3.865 -2.311,-4.116C-2.059,-4.366 -1.748,-4.492 -1.379,-4.492C-1.141,-4.492 -0.914,-4.433 -0.699,-4.317C-0.484,-4.2 -0.251,-3.987 0,-3.678" style="fill:rgb(64,63,65);fill-rule:nonzero;"/>
            </g>
            <g transform="matrix(1,0,0,1,70.2186,117.071)">
                <path d="M0,-2.693L-0.547,-2.112C-0.77,-2.346 -0.972,-2.463 -1.153,-2.463C-1.253,-2.463 -1.33,-2.441 -1.387,-2.396C-1.443,-2.351 -1.471,-2.296 -1.471,-2.229C-1.471,-2.179 -1.453,-2.133 -1.417,-2.09C-1.382,-2.048 -1.294,-1.99 -1.153,-1.917L-0.829,-1.745C-0.488,-1.567 -0.254,-1.384 -0.126,-1.199C0.001,-1.014 0.065,-0.796 0.065,-0.546C0.065,-0.214 -0.05,0.063 -0.28,0.285C-0.51,0.507 -0.818,0.618 -1.205,0.618C-1.719,0.618 -2.13,0.405 -2.436,-0.021L-1.892,-0.65C-1.788,-0.521 -1.667,-0.418 -1.527,-0.339C-1.388,-0.26 -1.265,-0.22 -1.157,-0.22C-1.04,-0.22 -0.946,-0.25 -0.875,-0.309C-0.803,-0.369 -0.768,-0.438 -0.768,-0.516C-0.768,-0.66 -0.896,-0.801 -1.153,-0.938L-1.451,-1.096C-2.022,-1.4 -2.307,-1.782 -2.307,-2.24C-2.307,-2.535 -2.199,-2.787 -1.984,-2.997C-1.77,-3.206 -1.495,-3.311 -1.16,-3.311C-0.931,-3.311 -0.715,-3.258 -0.513,-3.151C-0.311,-3.045 -0.14,-2.892 0,-2.693" style="fill:rgb(64,63,65);fill-rule:nonzero;"/>
            </g>
            <g transform="matrix(1,0,0,1,72.6503,116.806)">
                <path d="M0,-2.163C-0.275,-2.163 -0.504,-2.061 -0.686,-1.859C-0.869,-1.656 -0.961,-1.397 -0.961,-1.081C-0.961,-0.756 -0.87,-0.493 -0.69,-0.291C-0.509,-0.09 -0.28,0.011 -0.003,0.011C0.274,0.011 0.504,-0.091 0.688,-0.295C0.872,-0.498 0.964,-0.76 0.964,-1.081C0.964,-1.402 0.873,-1.662 0.693,-1.862C0.512,-2.063 0.281,-2.163 0,-2.163M-0.015,-3.046C0.318,-3.046 0.631,-2.957 0.923,-2.781C1.216,-2.605 1.444,-2.365 1.609,-2.063C1.773,-1.761 1.855,-1.435 1.855,-1.085C1.855,-0.732 1.772,-0.402 1.607,-0.095C1.442,0.211 1.216,0.451 0.932,0.624C0.646,0.797 0.332,0.883 -0.011,0.883C-0.517,0.883 -0.948,0.693 -1.306,0.311C-1.663,-0.07 -1.842,-0.533 -1.842,-1.078C-1.842,-1.662 -1.64,-2.148 -1.236,-2.537C-0.882,-2.876 -0.475,-3.046 -0.015,-3.046" style="fill:rgb(64,63,65);fill-rule:nonzero;"/>
            </g>
            <g transform="matrix(1,0,0,1,78.6779,116.837)">
                <path d="M0,-2.225L-0.736,-1.796C-0.875,-1.949 -1.012,-2.056 -1.147,-2.115C-1.282,-2.175 -1.44,-2.204 -1.622,-2.204C-1.953,-2.204 -2.22,-2.1 -2.425,-1.891C-2.629,-1.682 -2.731,-1.413 -2.731,-1.087C-2.731,-0.769 -2.633,-0.509 -2.436,-0.308C-2.239,-0.107 -1.981,-0.006 -1.661,-0.006C-1.265,-0.006 -0.957,-0.15 -0.736,-0.436L-0.039,0.07C-0.417,0.591 -0.95,0.852 -1.639,0.852C-2.259,0.852 -2.745,0.657 -3.096,0.268C-3.447,-0.121 -3.622,-0.577 -3.622,-1.099C-3.622,-1.46 -3.537,-1.793 -3.366,-2.098C-3.196,-2.402 -2.958,-2.642 -2.652,-2.816C-2.346,-2.99 -2.004,-3.077 -1.626,-3.077C-1.277,-3.077 -0.962,-3.003 -0.684,-2.855C-0.405,-2.707 -0.177,-2.497 0,-2.225" style="fill:rgb(64,63,65);fill-rule:nonzero;"/>
            </g>
            <g transform="matrix(1,0,0,1,0,-2385.71)">
                <path d="M79.378,2499.57L80.262,2499.57L80.262,2503.3L79.378,2503.3L79.378,2499.57ZM79.82,2498.03C79.975,2498.03 80.108,2498.09 80.219,2498.21C80.33,2498.33 80.385,2498.47 80.385,2498.64C80.385,2498.81 80.33,2498.95 80.221,2499.07C80.111,2499.18 79.979,2499.24 79.826,2499.24C79.669,2499.24 79.535,2499.18 79.424,2499.06C79.313,2498.94 79.258,2498.8 79.258,2498.62C79.258,2498.46 79.313,2498.32 79.423,2498.2C79.532,2498.09 79.665,2498.03 79.82,2498.03" style="fill:rgb(64,63,65);fill-rule:nonzero;"/>
            </g>
            <g transform="matrix(1,0,0,1,82.7374,116.823)">
                <path d="M0,-2.197C-0.274,-2.197 -0.501,-2.095 -0.681,-1.89C-0.862,-1.685 -0.953,-1.422 -0.953,-1.102C-0.953,-0.779 -0.861,-0.513 -0.676,-0.305C-0.493,-0.097 -0.266,0.008 0.003,0.008C0.281,0.008 0.511,-0.095 0.694,-0.3C0.877,-0.505 0.969,-0.773 0.969,-1.105C0.969,-1.43 0.877,-1.693 0.694,-1.895C0.511,-2.096 0.28,-2.197 0,-2.197M0.93,-2.966L1.814,-2.966L1.814,0.77L0.93,0.77L0.93,0.375C0.757,0.549 0.584,0.674 0.41,0.751C0.237,0.828 0.049,0.866 -0.154,0.866C-0.609,0.866 -1.003,0.679 -1.335,0.305C-1.668,-0.07 -1.834,-0.535 -1.834,-1.091C-1.834,-1.668 -1.673,-2.141 -1.352,-2.509C-1.03,-2.878 -0.64,-3.063 -0.18,-3.063C0.031,-3.063 0.23,-3.02 0.415,-2.936C0.601,-2.851 0.772,-2.724 0.93,-2.554L0.93,-2.966Z" style="fill:rgb(64,63,65);fill-rule:nonzero;"/>
            </g>
            <g transform="matrix(1,0,0,1,0,-2385.61)">
                <rect x="85.349" y="2498.03" width="0.884" height="5.179" style="fill:rgb(64,63,65);"/>
            </g>
            <g transform="matrix(1,0,0,1,89.6836,116.191)">
                <path d="M0,-0.933C-0.058,-1.141 -0.174,-1.311 -0.346,-1.441C-0.518,-1.572 -0.717,-1.637 -0.944,-1.637C-1.191,-1.637 -1.407,-1.564 -1.593,-1.417C-1.71,-1.326 -1.818,-1.164 -1.918,-0.933L0,-0.933ZM0.884,-0.195L-1.957,-0.195C-1.916,0.071 -1.806,0.282 -1.628,0.439C-1.45,0.596 -1.222,0.674 -0.946,0.674C-0.615,0.674 -0.332,0.552 -0.094,0.307L0.651,0.678C0.466,0.957 0.243,1.163 -0.016,1.297C-0.275,1.432 -0.583,1.498 -0.94,1.498C-1.492,1.498 -1.943,1.313 -2.29,0.944C-2.638,0.574 -2.812,0.111 -2.812,-0.445C-2.812,-1.016 -2.639,-1.489 -2.292,-1.865C-1.946,-2.242 -1.511,-2.431 -0.988,-2.431C-0.433,-2.431 0.018,-2.242 0.366,-1.865C0.714,-1.489 0.888,-0.992 0.888,-0.373L0.884,-0.195Z" style="fill:rgb(64,63,65);fill-rule:nonzero;"/>
            </g>
            <g transform="matrix(1,0,0,1,93.4418,117.071)">
                <path d="M0,-2.693L-0.547,-2.112C-0.77,-2.346 -0.972,-2.463 -1.153,-2.463C-1.253,-2.463 -1.331,-2.441 -1.387,-2.396C-1.443,-2.351 -1.471,-2.296 -1.471,-2.229C-1.471,-2.179 -1.453,-2.133 -1.417,-2.09C-1.382,-2.048 -1.294,-1.99 -1.153,-1.917L-0.829,-1.745C-0.488,-1.567 -0.254,-1.384 -0.126,-1.199C0.001,-1.014 0.065,-0.796 0.065,-0.546C0.065,-0.214 -0.05,0.063 -0.28,0.285C-0.51,0.507 -0.818,0.618 -1.205,0.618C-1.719,0.618 -2.13,0.405 -2.436,-0.021L-1.892,-0.65C-1.788,-0.521 -1.667,-0.418 -1.527,-0.339C-1.388,-0.26 -1.265,-0.22 -1.157,-0.22C-1.04,-0.22 -0.946,-0.25 -0.875,-0.309C-0.803,-0.369 -0.768,-0.438 -0.768,-0.516C-0.768,-0.66 -0.896,-0.801 -1.153,-0.938L-1.451,-1.096C-2.022,-1.4 -2.307,-1.782 -2.307,-2.24C-2.307,-2.535 -2.199,-2.787 -1.984,-2.997C-1.77,-3.206 -1.495,-3.311 -1.16,-3.311C-0.931,-3.311 -0.715,-3.258 -0.513,-3.151C-0.311,-3.045 -0.14,-2.892 0,-2.693" style="fill:rgb(64,63,65);fill-rule:nonzero;"/>
            </g>
            <g transform="matrix(1,0,0,1,102.371,116.906)">
                <path d="M0,-3.678L-0.672,-3.049C-0.908,-3.397 -1.148,-3.571 -1.393,-3.571C-1.512,-3.571 -1.609,-3.538 -1.684,-3.47C-1.76,-3.403 -1.798,-3.326 -1.798,-3.242C-1.798,-3.157 -1.771,-3.077 -1.717,-3.001C-1.643,-2.901 -1.422,-2.684 -1.052,-2.352C-0.705,-2.046 -0.496,-1.852 -0.422,-1.772C-0.238,-1.575 -0.108,-1.387 -0.031,-1.207C0.046,-1.027 0.084,-0.831 0.084,-0.618C0.084,-0.204 -0.051,0.139 -0.321,0.409C-0.591,0.679 -0.944,0.814 -1.379,0.814C-1.718,0.814 -2.014,0.726 -2.266,0.55C-2.518,0.374 -2.733,0.096 -2.913,-0.282L-2.15,-0.769C-1.921,-0.323 -1.657,-0.099 -1.358,-0.099C-1.203,-0.099 -1.072,-0.147 -0.966,-0.244C-0.86,-0.34 -0.807,-0.451 -0.807,-0.577C-0.807,-0.691 -0.847,-0.806 -0.927,-0.92C-1.007,-1.035 -1.183,-1.21 -1.456,-1.446C-1.975,-1.894 -2.311,-2.241 -2.462,-2.485C-2.613,-2.729 -2.689,-2.972 -2.689,-3.214C-2.689,-3.564 -2.563,-3.865 -2.311,-4.116C-2.059,-4.366 -1.748,-4.492 -1.379,-4.492C-1.141,-4.492 -0.914,-4.433 -0.699,-4.317C-0.484,-4.2 -0.251,-3.987 0,-3.678" style="fill:rgb(64,63,65);fill-rule:nonzero;"/>
            </g>
            <g transform="matrix(1,0,0,1,104.894,116.823)">
                <path d="M0,-2.197C-0.273,-2.197 -0.501,-2.095 -0.681,-1.89C-0.862,-1.685 -0.953,-1.422 -0.953,-1.102C-0.953,-0.779 -0.861,-0.513 -0.676,-0.305C-0.492,-0.097 -0.266,0.008 0.003,0.008C0.281,0.008 0.511,-0.095 0.694,-0.3C0.877,-0.505 0.968,-0.773 0.968,-1.105C0.968,-1.43 0.877,-1.693 0.694,-1.895C0.511,-2.096 0.28,-2.197 0,-2.197M0.93,-2.966L1.814,-2.966L1.814,0.77L0.93,0.77L0.93,0.375C0.757,0.549 0.584,0.674 0.41,0.751C0.237,0.828 0.049,0.866 -0.154,0.866C-0.61,0.866 -1.003,0.679 -1.335,0.305C-1.668,-0.07 -1.834,-0.535 -1.834,-1.091C-1.834,-1.668 -1.673,-2.141 -1.352,-2.509C-1.03,-2.878 -0.64,-3.063 -0.18,-3.063C0.031,-3.063 0.23,-3.02 0.415,-2.936C0.601,-2.851 0.772,-2.724 0.93,-2.554L0.93,-2.966Z" style="fill:rgb(64,63,65);fill-rule:nonzero;"/>
            </g>
            <g transform="matrix(1,0,0,1,107.603,117.497)">
                <path d="M0,-3.64L0.885,-3.64L0.885,-3.257C1.085,-3.436 1.267,-3.561 1.43,-3.631C1.592,-3.701 1.759,-3.736 1.929,-3.736C2.279,-3.736 2.576,-3.607 2.819,-3.348C3.024,-3.128 3.126,-2.803 3.126,-2.373L3.126,0.096L2.252,0.096L2.252,-1.54C2.252,-1.986 2.233,-2.282 2.195,-2.428C2.158,-2.575 2.092,-2.686 1.998,-2.763C1.904,-2.839 1.788,-2.878 1.651,-2.878C1.472,-2.878 1.318,-2.814 1.19,-2.687C1.062,-2.56 0.973,-2.385 0.923,-2.161C0.898,-2.044 0.885,-1.791 0.885,-1.403L0.885,0.096L0,0.096L0,-3.64Z" style="fill:rgb(64,63,65);fill-rule:nonzero;"/>
            </g>
            <g transform="matrix(1,0,0,1,111.692,117.594)">
                <path d="M0,-5.114L0.884,-5.114L0.884,-3.737L1.409,-3.737L1.409,-2.93L0.884,-2.93L0.884,0L0,0L0,-2.93L-0.454,-2.93L-0.454,-3.737L0,-3.737L0,-5.114Z" style="fill:rgb(64,63,65);fill-rule:nonzero;"/>
            </g>
            <g transform="matrix(1,0,0,1,115.395,117.689)">
                <path d="M0,-5.862L1.046,-5.862L-0.139,-4.516L-0.774,-4.516L0,-5.862ZM0.826,-2.431C0.768,-2.64 0.652,-2.809 0.481,-2.939C0.309,-3.07 0.109,-3.135 -0.118,-3.135C-0.365,-3.135 -0.581,-3.062 -0.767,-2.915C-0.884,-2.824 -0.992,-2.662 -1.092,-2.431L0.826,-2.431ZM1.711,-1.693L-1.131,-1.693C-1.09,-1.427 -0.98,-1.216 -0.802,-1.059C-0.624,-0.902 -0.396,-0.824 -0.12,-0.824C0.211,-0.824 0.495,-0.946 0.732,-1.191L1.477,-0.82C1.292,-0.541 1.069,-0.335 0.81,-0.201C0.551,-0.067 0.243,0 -0.113,0C-0.666,0 -1.116,-0.185 -1.464,-0.554C-1.812,-0.924 -1.986,-1.387 -1.986,-1.944C-1.986,-2.514 -1.812,-2.987 -1.466,-3.363C-1.119,-3.74 -0.685,-3.929 -0.162,-3.929C0.393,-3.929 0.844,-3.74 1.192,-3.363C1.54,-2.987 1.714,-2.49 1.714,-1.872L1.711,-1.693Z" style="fill:rgb(64,63,65);fill-rule:nonzero;"/>
            </g>
            <g transform="matrix(1,0,0,1,123.491,117.593)">
                <path d="M0,-5.052L2.602,-5.052L2.602,-4.111L0.901,-4.111L0.901,-3.198L2.602,-3.198L2.602,-2.274L0.901,-2.274L0.901,-0.945L2.602,-0.945L2.602,0L0,0L0,-5.052Z" style="fill:rgb(64,63,65);fill-rule:nonzero;"/>
            </g>
            <g transform="matrix(1,0,0,1,126.834,117.497)">
                <path d="M0,-3.64L0.885,-3.64L0.885,-3.211C1.036,-3.387 1.204,-3.519 1.389,-3.606C1.574,-3.693 1.775,-3.736 1.993,-3.736C2.214,-3.736 2.413,-3.679 2.59,-3.565C2.767,-3.45 2.91,-3.283 3.018,-3.063C3.158,-3.283 3.331,-3.45 3.535,-3.565C3.739,-3.679 3.962,-3.736 4.205,-3.736C4.455,-3.736 4.676,-3.674 4.866,-3.551C5.056,-3.427 5.193,-3.266 5.276,-3.067C5.359,-2.868 5.401,-2.543 5.401,-2.095L5.401,0.096L4.51,0.096L4.51,-1.799C4.51,-2.223 4.46,-2.51 4.361,-2.66C4.262,-2.81 4.113,-2.885 3.914,-2.885C3.763,-2.885 3.627,-2.839 3.507,-2.747C3.387,-2.656 3.298,-2.529 3.24,-2.368C3.182,-2.206 3.152,-1.947 3.152,-1.59L3.152,0.096L2.262,0.096L2.262,-1.713C2.262,-2.048 2.238,-2.29 2.192,-2.44C2.145,-2.59 2.075,-2.701 1.982,-2.775C1.889,-2.848 1.777,-2.885 1.644,-2.885C1.497,-2.885 1.364,-2.838 1.243,-2.745C1.123,-2.653 1.034,-2.523 0.974,-2.356C0.915,-2.189 0.885,-1.925 0.885,-1.566L0.885,0.096L0,0.096L0,-3.64Z" style="fill:rgb(64,63,65);fill-rule:nonzero;"/>
            </g>
            <g transform="matrix(1,0,0,1,134.885,118.094)">
                <path d="M0,-3.468C-0.279,-3.468 -0.51,-3.367 -0.693,-3.166C-0.877,-2.964 -0.969,-2.701 -0.969,-2.376C-0.969,-2.044 -0.877,-1.776 -0.693,-1.571C-0.51,-1.366 -0.279,-1.263 0,-1.263C0.27,-1.263 0.497,-1.368 0.682,-1.576C0.867,-1.784 0.959,-2.05 0.959,-2.373C0.959,-2.693 0.868,-2.956 0.687,-3.161C0.506,-3.366 0.276,-3.468 0,-3.468M-0.93,-4.237L-0.93,-3.825C-0.77,-3.995 -0.597,-4.122 -0.411,-4.207C-0.226,-4.291 -0.027,-4.334 0.185,-4.334C0.645,-4.334 1.036,-4.149 1.357,-3.78C1.679,-3.412 1.84,-2.939 1.84,-2.362C1.84,-1.806 1.674,-1.341 1.341,-0.966C1.009,-0.592 0.614,-0.405 0.159,-0.405C-0.044,-0.405 -0.233,-0.443 -0.408,-0.52C-0.583,-0.597 -0.757,-0.722 -0.93,-0.896L-0.93,0.866L-1.808,0.866L-1.808,-4.237L-0.93,-4.237Z" style="fill:rgb(64,63,65);fill-rule:nonzero;"/>
            </g>
            <g transform="matrix(1,0,0,1,0,-2385.61)">
                <rect x="137.36" y="2498.03" width="0.884" height="5.179" style="fill:rgb(64,63,65);"/>
            </g>
            <g transform="matrix(1,0,0,1,140.718,116.806)">
                <path d="M0,-2.163C-0.275,-2.163 -0.503,-2.061 -0.686,-1.859C-0.869,-1.656 -0.961,-1.397 -0.961,-1.081C-0.961,-0.756 -0.87,-0.493 -0.69,-0.291C-0.509,-0.09 -0.28,0.011 -0.003,0.011C0.274,0.011 0.504,-0.091 0.688,-0.295C0.872,-0.498 0.964,-0.76 0.964,-1.081C0.964,-1.402 0.873,-1.662 0.693,-1.862C0.512,-2.063 0.281,-2.163 0,-2.163M-0.015,-3.046C0.318,-3.046 0.63,-2.957 0.923,-2.781C1.216,-2.605 1.445,-2.365 1.608,-2.063C1.773,-1.761 1.855,-1.435 1.855,-1.085C1.855,-0.732 1.772,-0.402 1.607,-0.095C1.442,0.211 1.216,0.451 0.932,0.624C0.646,0.797 0.332,0.883 -0.011,0.883C-0.517,0.883 -0.948,0.693 -1.306,0.311C-1.663,-0.07 -1.842,-0.533 -1.842,-1.078C-1.842,-1.662 -1.64,-2.148 -1.236,-2.537C-0.882,-2.876 -0.474,-3.046 -0.015,-3.046" style="fill:rgb(64,63,65);fill-rule:nonzero;"/>
            </g>
            <g transform="matrix(1,0,0,1,0,-2385.71)">
                <path d="M143.199,2499.57L144.083,2499.57L144.083,2503.3L143.199,2503.3L143.199,2499.57ZM143.641,2498.03C143.796,2498.03 143.929,2498.09 144.04,2498.21C144.15,2498.33 144.206,2498.47 144.206,2498.64C144.206,2498.81 144.151,2498.95 144.041,2499.07C143.931,2499.18 143.8,2499.24 143.647,2499.24C143.49,2499.24 143.356,2499.18 143.245,2499.06C143.134,2498.94 143.079,2498.8 143.079,2498.62C143.079,2498.46 143.134,2498.32 143.243,2498.2C143.353,2498.09 143.486,2498.03 143.641,2498.03" style="fill:rgb(64,63,65);fill-rule:nonzero;"/>
            </g>
            <g transform="matrix(0,2.19754,2.19754,0,96.4075,115.396)">
                <circle cx="0.5" cy="0" r="0.5" style="fill:url(#_Linear2);"/>
            </g>
            <g transform="matrix(0,2.19754,2.19754,0,120.142,115.396)">
                <circle cx="0.5" cy="0" r="0.5" style="fill:url(#_Linear3);"/>
            </g>
        </g>
    </g>
    <defs>
        <linearGradient id="_Linear1" x1="0" y1="0" x2="1" y2="0" gradientUnits="userSpaceOnUse" gradientTransform="matrix(1,3.46945e-18,0,-1,0,0.00927109)"><stop offset="0" style="stop-color:rgb(255,243,58);stop-opacity:1"/><stop offset="0.2" style="stop-color:rgb(253,199,9);stop-opacity:1"/><stop offset="0.4" style="stop-color:rgb(244,145,63);stop-opacity:1"/><stop offset="0.67" style="stop-color:rgb(238,104,60);stop-opacity:1"/><stop offset="0.97" style="stop-color:rgb(145,38,143);stop-opacity:1"/><stop offset="1" style="stop-color:rgb(145,38,143);stop-opacity:1"/></linearGradient>
        <linearGradient id="_Linear2" x1="0" y1="0" x2="1" y2="0" gradientUnits="userSpaceOnUse" gradientTransform="matrix(0,1,1,0,0.499765,-0.499765)"><stop offset="0" style="stop-color:rgb(255,243,58);stop-opacity:1"/><stop offset="0.2" style="stop-color:rgb(253,199,9);stop-opacity:1"/><stop offset="0.4" style="stop-color:rgb(244,145,63);stop-opacity:1"/><stop offset="0.67" style="stop-color:rgb(238,104,60);stop-opacity:1"/><stop offset="0.97" style="stop-color:rgb(145,38,143);stop-opacity:1"/><stop offset="1" style="stop-color:rgb(145,38,143);stop-opacity:1"/></linearGradient>
        <linearGradient id="_Linear3" x1="0" y1="0" x2="1" y2="0" gradientUnits="userSpaceOnUse" gradientTransform="matrix(0,1,1,0,0.499758,-0.499758)"><stop offset="0" style="stop-color:rgb(255,243,58);stop-opacity:1"/><stop offset="0.2" style="stop-color:rgb(253,199,9);stop-opacity:1"/><stop offset="0.4" style="stop-color:rgb(244,145,63);stop-opacity:1"/><stop offset="0.67" style="stop-color:rgb(238,104,60);stop-opacity:1"/><stop offset="0.97" style="stop-color:rgb(145,38,143);stop-opacity:1"/><stop offset="1" style="stop-color:rgb(145,38,143);stop-opacity:1"/></linearGradient>
    </defs>
</svg>